<?xml version="1.0" standalone="no"?>
<!DOCTYPE svg PUBLIC "-//W3C//DTD SVG 20010904//EN"
 "http://www.w3.org/TR/2001/REC-SVG-20010904/DTD/svg10.dtd">
<svg version="1.0" xmlns="http://www.w3.org/2000/svg"
 width="109.000000pt" height="102.000000pt" viewBox="0 0 109.000000 102.000000"
 preserveAspectRatio="xMidYMid meet">
<metadata>
Created by potrace 1.10, written by Peter Selinger 2001-2011
</metadata>
<g transform="translate(0.000000,102.000000) scale(0.100000,-0.100000)"
fill="#000000" stroke="none">
<path d="M190 910 c0 -6 14 -43 30 -82 l31 -72 -24 -20 c-14 -12 -27 -29 -30
-38 -4 -10 -16 -18 -30 -18 -18 0 -28 11 -46 46 -15 31 -25 44 -32 37 -7 -7
-3 -26 12 -57 20 -41 27 -46 56 -46 l33 0 0 -53 c0 -53 -1 -54 -40 -72 -52
-23 -57 -31 -62 -85 -4 -60 14 -63 27 -5 8 35 18 51 42 66 l33 21 9 -26 c29
-76 168 -76 187 0 7 29 5 29 48 4 30 -18 35 -28 41 -71 4 -31 11 -48 19 -46
11 4 11 23 1 83 -4 25 -15 37 -50 55 -45 24 -45 24 -45 76 l0 53 33 0 c29 0
36 5 56 46 14 30 19 50 13 56 -10 10 -16 4 -42 -47 -19 -38 -54 -45 -70 -13
-7 13 -22 30 -33 39 l-21 17 32 72 c36 81 38 90 20 90 -7 0 -27 -35 -45 -78
-41 -101 -56 -102 -98 -3 -28 67 -55 102 -55 71z m139 -185 c37 -19 41 -31 41
-126 0 -71 -3 -83 -25 -104 -31 -32 -66 -32 -102 -1 -27 23 -28 28 -28 111 0
83 1 88 28 111 33 28 47 29 86 9z"/>
<path d="M836 663 c-2 -10 -7 -48 -11 -85 -6 -65 -8 -68 -33 -68 -14 0 -33 -7
-43 -16 -14 -12 -22 -13 -38 -4 -17 9 -21 20 -21 61 0 69 -24 61 -28 -9 -3
-44 0 -52 20 -63 13 -6 25 -13 27 -15 2 -2 -9 -24 -23 -49 l-27 -46 -48 7
c-46 6 -47 6 -85 -41 -26 -31 -35 -50 -28 -57 6 -6 20 4 43 31 28 35 38 41 71
41 38 0 38 0 38 -39 0 -55 32 -90 87 -98 31 -4 50 -1 69 12 14 9 27 15 29 13
1 -2 10 -18 19 -35 15 -30 15 -36 1 -69 -18 -43 -19 -67 -4 -62 6 2 20 27 31
55 l19 52 -27 42 -27 43 24 43 c13 24 26 43 29 43 3 0 16 -7 28 -16 20 -14 25
-13 67 16 43 30 57 50 34 50 -5 0 -26 -11 -46 -24 -44 -30 -69 -19 -76 33 -2
20 -7 43 -10 51 -4 11 14 30 64 64 44 32 66 53 60 59 -6 6 -35 -9 -80 -42 -69
-50 -107 -59 -97 -22 12 41 18 161 8 161 -6 0 -13 -8 -16 -17z m34 -213 c6
-10 10 -31 10 -45 0 -37 -65 -149 -93 -162 -54 -25 -124 24 -113 79 10 48 79
152 106 158 32 8 78 -7 90 -30z"/>
</g>
</svg>
