<?xml version="1.0" standalone="no"?>
<!DOCTYPE svg PUBLIC "-//W3C//DTD SVG 20010904//EN"
 "http://www.w3.org/TR/2001/REC-SVG-20010904/DTD/svg10.dtd">
<svg version="1.0" xmlns="http://www.w3.org/2000/svg"
 width="95.000000pt" height="86.000000pt" viewBox="0 0 95.000000 86.000000"
 preserveAspectRatio="xMidYMid meet">
<metadata>
Created by potrace 1.10, written by Peter Selinger 2001-2011
</metadata>
<g transform="translate(0.000000,86.000000) scale(0.100000,-0.100000)"
fill="#000000" stroke="none">
<path d="M189 687 c-66 -35 -102 -93 -107 -170 -4 -64 9 -117 29 -117 7 0 8 7
4 18 -14 34 -17 110 -6 145 17 51 48 87 95 108 77 35 159 15 225 -55 l34 -36
47 44 c25 24 63 49 84 56 122 40 246 -63 233 -193 -2 -29 -8 -60 -12 -69 -4
-10 -3 -18 3 -18 19 0 34 60 30 120 -5 75 -43 133 -108 166 -78 40 -178 23
-240 -41 l-34 -35 -36 35 c-67 65 -165 82 -241 42z"/>
<path d="M338 448 l-25 -73 -86 -3 c-117 -4 -112 -22 6 -22 l94 0 18 60 c10
33 21 57 25 53 4 -4 25 -59 46 -120 21 -62 43 -113 49 -113 5 0 19 21 29 48
11 26 31 72 45 101 l24 55 21 -42 20 -42 93 0 c55 0 93 4 93 10 0 6 -35 10
-85 10 l-85 0 -28 50 c-15 27 -29 50 -32 50 -3 0 -25 -47 -50 -103 l-45 -104
-34 91 c-18 50 -38 108 -44 129 -6 20 -14 37 -18 37 -4 0 -18 -33 -31 -72z"/>
<path d="M200 291 c0 -4 56 -66 124 -137 116 -121 125 -128 149 -119 31 12
261 251 249 259 -5 3 -62 -51 -127 -119 -64 -69 -123 -125 -130 -125 -8 0 -67
56 -132 125 -111 118 -133 137 -133 116z"/>
</g>
</svg>
