<?xml version="1.0" standalone="no"?>
<!DOCTYPE svg PUBLIC "-//W3C//DTD SVG 20010904//EN"
 "http://www.w3.org/TR/2001/REC-SVG-20010904/DTD/svg10.dtd">
<svg version="1.0" xmlns="http://www.w3.org/2000/svg"
 width="109.000000pt" height="71.000000pt" viewBox="0 0 109.000000 71.000000"
 preserveAspectRatio="xMidYMid meet">
<metadata>
Created by potrace 1.10, written by Peter Selinger 2001-2011
</metadata>
<g transform="translate(0.000000,71.000000) scale(0.100000,-0.100000)"
fill="#000000" stroke="none">
<path d="M164 546 c-28 -28 -34 -41 -34 -78 0 -44 17 -79 55 -110 20 -16 20
-17 -17 -51 -35 -32 -38 -39 -38 -87 0 -46 4 -56 34 -86 28 -28 42 -34 76 -34
43 0 50 5 130 97 19 22 25 23 195 23 170 0 176 -1 195 -22 80 -93 87 -98 130
-98 35 0 48 6 77 35 34 34 35 38 31 92 -4 49 -9 60 -39 85 l-34 28 26 23 c36
30 49 58 49 107 0 58 -50 110 -107 110 -43 0 -103 -32 -103 -55 0 -9 -11 -27
-25 -40 -24 -25 -27 -25 -200 -25 -170 0 -176 1 -195 23 -80 92 -87 97 -130
97 -34 0 -48 -6 -76 -34z m115 5 c9 -6 30 -30 46 -55 15 -24 37 -47 49 -50 12
-3 101 -6 199 -6 l178 0 25 28 c13 15 37 42 53 60 39 42 81 44 122 3 43 -43
41 -93 -6 -137 -44 -41 -44 -63 0 -107 46 -46 48 -95 6 -138 -45 -45 -106 -35
-140 23 -41 70 -35 68 -243 68 -111 0 -197 -4 -209 -10 -10 -6 -28 -29 -39
-51 -33 -64 -93 -77 -141 -30 -42 42 -40 89 6 140 19 21 35 45 35 54 0 8 -16
31 -35 50 -27 27 -35 43 -35 72 0 66 73 115 129 86z"/>
</g>
</svg>
