<?xml version="1.0" standalone="no"?>
<!DOCTYPE svg PUBLIC "-//W3C//DTD SVG 20010904//EN"
 "http://www.w3.org/TR/2001/REC-SVG-20010904/DTD/svg10.dtd">
<svg version="1.0" xmlns="http://www.w3.org/2000/svg"
 width="108.000000pt" height="90.000000pt" viewBox="0 0 108.000000 90.000000"
 preserveAspectRatio="xMidYMid meet">
<metadata>
Created by potrace 1.10, written by Peter Selinger 2001-2011
</metadata>
<g transform="translate(0.000000,90.000000) scale(0.100000,-0.100000)"
fill="#000000" stroke="none">
<path d="M265 754 c-40 -21 -64 -43 -84 -79 -13 -25 -16 -63 -16 -235 0 -187
2 -208 20 -239 31 -53 67 -74 132 -79 48 -3 64 0 92 20 74 50 76 56 79 289 l3
210 -26 46 c-43 72 -133 102 -200 67z m146 -41 c45 -39 59 -79 59 -178 l0 -85
-140 0 -140 0 0 95 c0 67 5 105 15 126 37 71 145 93 206 42z m59 -370 c0 -64
-5 -98 -18 -123 -49 -98 -187 -108 -242 -17 -16 26 -20 50 -20 130 l0 97 140
0 140 0 0 -87z"/>
<path d="M696 565 c-92 -32 -146 -103 -154 -200 -4 -56 -1 -72 22 -119 51
-104 161 -153 271 -121 106 30 166 111 166 220 0 164 -153 274 -305 220z m174
-35 c99 -51 138 -171 89 -275 -12 -25 -24 -45 -28 -45 -3 0 -73 66 -154 148
-144 144 -147 147 -124 161 66 42 148 46 217 11z m40 -341 c0 -4 -19 -17 -43
-28 -107 -52 -238 -5 -288 104 -26 56 -24 111 7 174 l27 53 148 -148 c82 -82
149 -152 149 -155z"/>
</g>
</svg>
