<?xml version="1.0" standalone="no"?>
<!DOCTYPE svg PUBLIC "-//W3C//DTD SVG 20010904//EN"
 "http://www.w3.org/TR/2001/REC-SVG-20010904/DTD/svg10.dtd">
<svg version="1.0" xmlns="http://www.w3.org/2000/svg"
 width="96.000000pt" height="96.000000pt" viewBox="0 0 96.000000 96.000000"
 preserveAspectRatio="xMidYMid meet">
<metadata>
Created by potrace 1.10, written by Peter Selinger 2001-2011
</metadata>
<g transform="translate(0.000000,96.000000) scale(0.100000,-0.100000)"
fill="#000000" stroke="none">
<path d="M180 831 c0 -6 60 -275 95 -428 5 -23 6 -23 209 -23 l204 0 48 142
c26 78 47 148 48 156 1 12 -14 14 -76 13 -105 -3 -155 12 -176 52 -9 17 -32
46 -50 64 l-33 33 -135 0 c-74 0 -134 -4 -134 -9z m265 -23 c14 -6 39 -33 55
-60 39 -63 74 -78 181 -78 73 0 80 -2 74 -17 -4 -10 -24 -70 -46 -133 l-38
-115 -185 -3 -185 -2 -10 37 c-5 21 -27 116 -48 211 l-39 172 107 0 c61 0 119
-5 134 -12z"/>
<path d="M122 480 c-21 -20 -22 -28 -22 -210 0 -177 1 -190 19 -200 30 -15
723 -14 739 2 8 8 12 67 12 198 0 182 -1 187 -23 208 -24 23 -71 30 -82 12 -3
-6 4 -10 17 -10 13 0 34 -7 46 -16 20 -14 22 -23 22 -110 l0 -94 -365 0 -365
0 0 94 c0 87 2 96 22 110 12 9 30 16 40 16 10 0 18 5 18 10 0 18 -56 11 -78
-10z m728 -313 c0 -36 -5 -68 -12 -75 -17 -17 -689 -17 -706 0 -7 7 -12 39
-12 75 l0 63 365 0 365 0 0 -63z"/>
</g>
</svg>
