<?xml version="1.0" standalone="no"?>
<!DOCTYPE svg PUBLIC "-//W3C//DTD SVG 20010904//EN"
 "http://www.w3.org/TR/2001/REC-SVG-20010904/DTD/svg10.dtd">
<svg version="1.0" xmlns="http://www.w3.org/2000/svg"
 width="101.000000pt" height="98.000000pt" viewBox="0 0 101.000000 98.000000"
 preserveAspectRatio="xMidYMid meet">
<metadata>
Created by potrace 1.10, written by Peter Selinger 2001-2011
</metadata>
<g transform="translate(0.000000,98.000000) scale(0.100000,-0.100000)"
fill="#000000" stroke="none">
<path d="M383 774 c-18 -8 -46 -33 -63 -56 -41 -57 -42 -125 -1 -206 16 -31
31 -75 34 -97 36 -248 47 -285 87 -285 28 0 46 31 65 110 25 109 25 109 44
120 32 17 50 -10 72 -105 22 -93 40 -125 69 -125 40 0 51 37 87 285 3 22 19
67 35 99 40 80 40 144 1 200 -50 71 -127 91 -190 50 -24 -15 -32 -40 -10 -31
6 3 28 12 48 21 34 14 39 14 78 -6 48 -24 81 -77 81 -133 0 -20 -13 -62 -30
-96 -22 -43 -35 -89 -45 -166 -25 -176 -31 -195 -57 -191 -17 2 -25 19 -43 96
-23 98 -44 132 -80 132 -36 0 -57 -34 -80 -132 -20 -85 -24 -93 -46 -93 -26 0
-27 2 -54 192 -10 73 -23 120 -45 162 -47 95 -34 178 35 221 49 31 83 25 161
-25 38 -24 72 -45 77 -45 36 -1 -78 86 -142 108 -41 14 -47 14 -88 -4z"/>
</g>
</svg>
